HIERARCHY
ROOT Hips
{
  OFFSET 1.44925e-005 102.336 -0.101585
  CHANNELS 6 Xposition Yposition Zposition Zrotation Xrotation Yrotation
  JOINT LeftUpLeg
  {
    OFFSET 8.9458 -8.66707 0.101652
    CHANNELS 3 Zrotation Xrotation Yrotation
    JOINT LeftLeg
    {
      OFFSET 0 -44.4227 1.3727
      CHANNELS 3 Zrotation Xrotation Yrotation
      JOINT LeftFoot
      {
        OFFSET -0.253549 -42.0924 -1.46059
        CHANNELS 3 Zrotation Xrotation Yrotation
        JOINT LeftToes
        {
          OFFSET -0.04 -4.41509 8.4991
          CHANNELS 3 Zrotation Xrotation Yrotation
          End Site
          {
            OFFSET 0.08 -0.047448 9.77979
          }
        }
      }
    }
  }
  JOINT Spine
  {
    OFFSET 0 11.8905 0
    CHANNELS 3 Zrotation Xrotation Yrotation
    JOINT Spine1
    {
      OFFSET 0 25.6574 0.127663
      CHANNELS 3 Zrotation Xrotation Yrotation
      JOINT RightShoulder
      {
        OFFSET -8.99 -0.362252 -0.22
        CHANNELS 3 Zrotation Xrotation Yrotation
        JOINT RightArm
        {
          OFFSET -10.2827 -0.00338 0.322123
          CHANNELS 3 Zrotation Xrotation Yrotation
          JOINT RightForeArm
          {
            OFFSET -26.364 0.099144 -1.42434
            CHANNELS 3 Zrotation Xrotation Yrotation
            JOINT RightHand
            {
              OFFSET -22.0324 0.085362 1.02216
              CHANNELS 3 Zrotation Xrotation Yrotation
              End Site
              {
                OFFSET -13.3284 -0.6 1.50291
              }
            }
          }
        }
      }
      JOINT LeftShoulder1
      {
        OFFSET 8.99 -0.362252 -0.22
        CHANNELS 3 Zrotation Xrotation Yrotation
        JOINT LeftArm
        {
          OFFSET 10.2827 -0.00337999 0.322123
          CHANNELS 3 Zrotation Xrotation Yrotation
          JOINT LeftForeArm
          {
            OFFSET 26.2597 0.099144 -1.42434
            CHANNELS 3 Zrotation Xrotation Yrotation
            JOINT LeftHand
            {
              OFFSET 22.0902 0.085362 1.02216
              CHANNELS 3 Zrotation Xrotation Yrotation
              End Site
              {
                OFFSET 13.419 -0.6 1.50291
              }
            }
          }
        }
      }
      JOINT Head
      {
        OFFSET 0 8.73416 0.011341
        CHANNELS 3 Zrotation Xrotation Yrotation
        End Site
        {
          OFFSET -0.29 12.7742 2.51395
        }
      }
    }
  }
  JOINT RightUpLeg
  {
    OFFSET -8.9458 -8.66707 0.101652
    CHANNELS 3 Zrotation Xrotation Yrotation
    JOINT RightLeg
    {
      OFFSET 0 -44.4227 1.3727
      CHANNELS 3 Zrotation Xrotation Yrotation
      JOINT RightFoot
      {
        OFFSET 0.253549 -42.0924 -1.46059
        CHANNELS 3 Zrotation Xrotation Yrotation
        JOINT RightToes
        {
          OFFSET 0.04 -4.41509 8.4991
          CHANNELS 3 Zrotation Xrotation Yrotation
          End Site
          {
            OFFSET -0.08 -0.137448 9.77979
          }
        }
      }
    }
  }
}
MOTION
Frames:	8
Frame Time:	0.0333333
34.6537 105.134 3.08054 -3.42342 -0.485357 -87.2735 -2.88791 9.26616 7.87243 1.22842 27.0953 21.6188 -4.57102 -4.05688 0.151423 -1.30239e-009 8.75239e-006 -1.47668e-008 -1.77014 13.7011 -5.79813 6.96177 -2.13107 -7.16651 35.0347 1.89575 0.577898 28.9025 0.094009 -44.7194 3.44816 21.9959 53.7906 -14.4513 9.19902 0.497781 -34.8204 2.61518 -2.88647 -42.2093 -11.0458 -38.4463 20.0281 22.4055 -94.2105 5.82328 9.61819 -0.917488 0.853917 -17.0802 1.95844 -1.45883 -23.7392 -11.2741 -1.06145 35.6257 -16.1646 11.077 -26.1972 1.57141 0.0462048 0.000530889 0.662642 
30.8511 104.186 2.68574 -4.25344 -0.627839 -87.2689 -1.82173 9.36657 8.5751 1.36351 34.0225 25.631 -5.52658 -6.85122 0.0642909 -1.30239e-009 8.75239e-006 -1.47668e-008 -1.85879 13.9479 -6.08262 7.57416 -1.03322 -7.54728 35.3646 1.88999 0.53092 27.5303 -1.59761 -46.8939 4.24003 21.6228 55.1847 -14.2282 9.22596 0.363397 -34.9221 2.62345 -2.89052 -42.535 -11.2479 -38.8522 19.3834 21.6744 -96.2701 5.82328 9.61819 -0.917488 1.20744 -17.3181 2.51804 -0.905103 -20.0389 -12.2313 -0.995646 30.1909 -15.7913 11.5502 -27.3971 1.77571 0.0462048 0.000530889 0.662642 
27.1177 102.114 2.16168 -4.80177 -0.844942 -87.2536 -0.535366 8.91093 8.58264 1.52984 41.3612 26.4033 -6.07143 -10.6937 -0.111575 -1.30239e-009 8.75239e-006 -1.47668e-008 -2.48883 13.9045 -6.3727 8.58255 0.147432 -8.00397 35.7186 1.8814 0.475386 27.003 -2.8918 -46.5377 4.81867 21.2734 54.7961 -14.0123 9.26228 0.138387 -35.5475 2.69632 -2.96687 -42.2642 -11.6051 -37.8603 18.5809 21.5072 -96.8396 5.82328 9.61819 -0.917488 1.61512 -17.4345 3.13305 -0.303972 -17.3643 -12.4479 -0.967562 27.7393 -16.0805 12.2084 -27.9588 1.95396 0.0462048 0.000530889 0.662642 
23.5846 99.1454 1.69832 -4.67263 -0.0722437 -87.664 1.33397 7.2859 7.94467 1.7571 48.834 25.7061 -6.3442 -14.8626 -0.332979 -1.30239e-009 8.75239e-006 -1.47668e-008 -1.62867 14.0151 -6.61653 8.92697 0.0156684 -8.02096 35.8073 1.8709 0.441697 26.9167 -4.59845 -45.2558 4.5844 21.3854 54.5357 -13.7506 9.26111 0.261911 -37.1214 2.87104 -3.12737 -40.8617 -11.9483 -35.3781 18.1079 21.6622 -96.4102 5.82328 9.61819 -0.917488 1.49879 -16.6418 3.43868 0.970752 -17.6446 -11.5926 -1.00382 30.2255 -16.6471 10.6864 -26.7047 1.56099 0.0462048 0.000530889 0.662642 
20.4719 95.6761 1.40292 -4.662 1.8153 -89.0555 4.12797 5.04827 6.75153 2.1084 56.8251 25.3277 -7.29226 -18.3314 -0.601245 -1.30239e-009 8.75239e-006 -1.47668e-008 1.64237 15.6111 -6.50204 8.63601 -1.07857 -7.24865 35.7944 1.84078 0.371106 27.0109 -6.76985 -41.9933 4.96405 21.1422 54.25 -14.1219 9.23103 0.366577 -39.533 3.11732 -3.29981 -38.6887 -12.3361 -32.2368 19.031 22.0338 -95.2392 5.82328 9.61819 -0.917488 0.963998 -16.7627 3.61238 3.91151 -20.8178 -9.54076 -1.20913 38.4508 -17.4494 6.40142 -25.1095 0.719214 0.0462048 0.000530889 0.662642 
17.7065 92.0656 1.16271 -5.46128 4.54284 -92.0223 6.87067 2.8477 4.61803 2.69285 65.5023 24.3349 -8.41952 -20.7371 -0.876922 -1.30239e-009 8.75239e-006 -1.47668e-008 4.93832 18.6564 -6.0485 8.92711 -1.24669 -6.23119 36.2458 1.79158 0.213027 27.6896 -8.59127 -33.8036 6.36591 20.0887 52.0718 -15.6294 9.20938 -0.0529656 -42.019 3.36981 -3.44853 -36.6556 -12.9958 -28.9175 21.237 23.3304 -92.0029 5.82328 9.61819 -0.917488 0.641043 -19.5789 4.26154 7.9569 -24.0698 -6.89337 -1.49603 49.1638 -18.5168 2.36029 -26.1651 0.0919864 0.0462048 0.000530889 0.662642 
15.0902 88.9116 0.877162 -6.65792 6.89244 -93.8193 8.26929 -0.0308938 1.33769 3.9505 74.1298 21.5245 -8.53187 -22.5017 -1.01855 -1.30239e-009 8.75239e-006 -1.47668e-008 6.50834 21.4005 -5.73381 10.0198 0.255684 -5.66017 37.4674 1.76474 0.0436484 29.2905 -9.06199 -20.5979 7.25991 18.9293 48.1673 -17.4631 9.21767 -0.721576 -43.9973 3.57614 -3.56085 -34.9277 -13.6888 -24.8113 22.1969 26.3235 -84.6746 5.82328 9.61819 -0.917488 0.750681 -23.5699 5.46664 11.3826 -25.2641 -4.78811 -1.90144 57.8995 -19.5771 1.5489 -30.3402 0.00442767 0.0462048 0.000530889 0.662642 
12.3631 86.7602 0.634573 -7.38275 8.06002 -95.1714 8.08793 -4.43438 -1.81967 7.21949 81.5562 16.8472 -8.11477 -23.7441 -1.04987 -1.30239e-009 8.75239e-006 -1.47668e-008 7.67523 22.6536 -5.63006 9.99312 1.9063 -5.15377 38.8355 1.77749 -0.0406853 31.7026 -8.09537 -6.2883 7.04701 18.6399 45.5278 -18.2153 9.24605 -1.11868 -45.5476 3.7111 -3.58764 -32.6728 -13.5665 -19.1155 19.3456 29.6412 -73.1512 5.82328 9.61819 -0.917488 0.734651 -25.7526 6.32626 13.3981 -24.6805 -3.20163 -2.28728 62.9976 -20.0922 3.304 -34.9166 0.474749 0.0462048 0.000530889 0.662642 
